HIERARCHY
ROOT hip
{
  OFFSET 0 0 0
  CHANNELS 6 Xposition Yposition Zposition Zrotation Yrotation Xrotation
  JOINT abdomen
  {
    OFFSET 0 20.6881 -0.73152
    CHANNELS 3 Zrotation Xrotation Yrotation
    JOINT chest
    {
      OFFSET 0 11.7043 -0.48768
      CHANNELS 3 Zrotation Xrotation Yrotation
      JOINT neck
      {
        OFFSET 0 22.1894 -2.19456
        CHANNELS 3 Zrotation Xrotation Yrotation
        JOINT head
        {
          OFFSET -0.24384 7.07133 1.2192
          CHANNELS 3 Zrotation Xrotation Yrotation
          JOINT leftEye
          {
            OFFSET 4.14528 8.04674 8.04672
            CHANNELS 3 Zrotation Xrotation Yrotation
            End Site
            {
              OFFSET 1 0 0
            }
          }
          JOINT rightEye
          {
            OFFSET -3.6576 8.04674 8.04672
            CHANNELS 3 Zrotation Xrotation Yrotation
            End Site
            {
              OFFSET 1 0 0
            }
          }
        }
      }
      JOINT rCollar
      {
        OFFSET -2.68224 19.2634 -4.8768
        CHANNELS 3 Zrotation Xrotation Yrotation
        JOINT rShldr
        {
          OFFSET -8.77824 -1.95073 1.46304
          CHANNELS 3 Zrotation Xrotation Yrotation
          JOINT rForeArm
          {
            OFFSET -28.1742 -1.7115 0.48768
            CHANNELS 3 Zrotation Xrotation Yrotation
            JOINT rHand
            {
              OFFSET -22.5879 0.773209 7.07136
              CHANNELS 3 Zrotation Xrotation Yrotation
              JOINT rThumb1
              {
                OFFSET -1.2192 -0.487915 3.41376
                CHANNELS 3 Zrotation Xrotation Yrotation
                JOINT rThumb2
                {
                  OFFSET -3.37035 -0.52449 3.41376
                  CHANNELS 3 Zrotation Xrotation Yrotation
                  End Site
                  {
                    OFFSET -1.78271 -1.18214 1.43049
                  }
                }
              }
              JOINT rIndex1
              {
                OFFSET -7.75947 0.938293 5.60832
                CHANNELS 3 Zrotation Xrotation Yrotation
                JOINT rIndex2
                {
                  OFFSET -2.54057 -0.884171 1.56538
                  CHANNELS 3 Zrotation Xrotation Yrotation
                  End Site
                  {
                    OFFSET -1.62519 -0.234802 1.16502
                  }
                }
              }
              JOINT rMid1
              {
                OFFSET -8.24714 1.18213 3.41376
                CHANNELS 3 Zrotation Xrotation Yrotation
                JOINT rMid2
                {
                  OFFSET -3.10165 -0.590103 1.0647
                  CHANNELS 3 Zrotation Xrotation Yrotation
                  End Site
                  {
                    OFFSET -2.48547 -0.328903 0.83742
                  }
                }
              }
              JOINT rRing1
              {
                OFFSET -8.82822 0.546677 1.51678
                CHANNELS 3 Zrotation Xrotation Yrotation
                JOINT rRing2
                {
                  OFFSET -2.60934 -0.819778 -0.0198488
                  CHANNELS 3 Zrotation Xrotation Yrotation
                  End Site
                  {
                    OFFSET -2.33842 -0.294052 0.168128
                  }
                }
              }
              JOINT rPinky1
              {
                OFFSET -8.27202 -0.0477905 -0.4584
                CHANNELS 3 Zrotation Xrotation Yrotation
                JOINT rPinky2
                {
                  OFFSET -1.82734 -0.647385 -0.700984
                  CHANNELS 3 Zrotation Xrotation Yrotation
                  End Site
                  {
                    OFFSET -1.69225 -0.51767 -0.607171
                  }
                }
              }
            }
          }
        }
      }
      JOINT lCollar
      {
        OFFSET 2.68224 19.2634 -4.8768
        CHANNELS 3 Zrotation Xrotation Yrotation
        JOINT lShldr
        {
          OFFSET 8.77824 -1.95073 1.46304
          CHANNELS 3 Zrotation Xrotation Yrotation
          JOINT lForeArm
          {
            OFFSET 28.1742 -1.7115 0.48768
            CHANNELS 3 Zrotation Xrotation Yrotation
            JOINT lHand
            {
              OFFSET 22.5879 0.773209 7.07136
              CHANNELS 3 Zrotation Xrotation Yrotation
              JOINT lThumb1
              {
                OFFSET 1.2192 -0.487915 3.41376
                CHANNELS 3 Zrotation Xrotation Yrotation
                JOINT lThumb2
                {
                  OFFSET 3.37035 -0.52449 3.41376
                  CHANNELS 3 Zrotation Xrotation Yrotation
                  End Site
                  {
                    OFFSET 1.78271 -1.18214 1.43049
                  }
                }
              }
              JOINT lIndex1
              {
                OFFSET 7.75947 0.938293 5.60832
                CHANNELS 3 Zrotation Xrotation Yrotation
                JOINT lIndex2
                {
                  OFFSET 2.54057 -0.884171 1.56538
                  CHANNELS 3 Zrotation Xrotation Yrotation
                  End Site
                  {
                    OFFSET 1.62519 -0.234802 1.16502
                  }
                }
              }
              JOINT lMid1
              {
                OFFSET 8.24714 1.18213 3.41376
                CHANNELS 3 Zrotation Xrotation Yrotation
                JOINT lMid2
                {
                  OFFSET 3.10165 -0.590103 1.0647
                  CHANNELS 3 Zrotation Xrotation Yrotation
                  End Site
                  {
                    OFFSET 2.48547 -0.328903 0.83742
                  }
                }
              }
              JOINT lRing1
              {
                OFFSET 8.82822 0.546677 1.51678
                CHANNELS 3 Zrotation Xrotation Yrotation
                JOINT lRing2
                {
                  OFFSET 2.60934 -0.819778 -0.0198488
                  CHANNELS 3 Zrotation Xrotation Yrotation
                  End Site
                  {
                    OFFSET 2.33842 -0.294052 0.168128
                  }
                }
              }
              JOINT lPinky1
              {
                OFFSET 8.27202 -0.0477905 -0.4584
                CHANNELS 3 Zrotation Xrotation Yrotation
                JOINT lPinky2
                {
                  OFFSET 1.82734 -0.647385 -0.700984
                  CHANNELS 3 Zrotation Xrotation Yrotation
                  End Site
                  {
                    OFFSET 1.69225 -0.51767 -0.607171
                  }
                }
              }
            }
          }
        }
      }
    }
  }
  JOINT rButtock
  {
    OFFSET -8.77824 4.35084 1.2192
    CHANNELS 3 Zrotation Xrotation Yrotation
    JOINT rThigh
    {
      OFFSET 0 -1.70687 -2.19456
      CHANNELS 3 Zrotation Xrotation Yrotation
      JOINT rShin
      {
        OFFSET 0 -36.8199 0.73152
        CHANNELS 3 Zrotation Xrotation Yrotation
        JOINT rFoot
        {
          OFFSET 0.73152 -45.1104 -5.12064
          CHANNELS 3 Zrotation Xrotation Yrotation
          End Site
          {
            OFFSET -1.1221 -3.69964 12.103
          }
        }
      }
    }
  }
  JOINT lButtock
  {
    OFFSET 8.77824 4.35084 1.2192
    CHANNELS 3 Zrotation Xrotation Yrotation
    JOINT lThigh
    {
      OFFSET 0 -1.70687 -2.19456
      CHANNELS 3 Zrotation Xrotation Yrotation
      JOINT lShin
      {
        OFFSET 0 -36.8199 0.73152
        CHANNELS 3 Zrotation Xrotation Yrotation
        JOINT lFoot
        {
          OFFSET -0.73152 -45.1104 -5.12064
          CHANNELS 3 Zrotation Xrotation Yrotation
          End Site
          {
            OFFSET 1.1221 -3.69964 12.103
          }
        }
      }
    }
  }
}
MOTION
Frames:	7
Frame Time:	0.00833333
29.5171 78.8594 -68.5757 560.944 -70.5957 174.272 8.79187 -10.1594 3.25563 -2.29486 0.84742 0.673477 9.30753 16.4791 17.1154 -20.1499 -12.742 30.2135 -0.0 0.0 0.0 -0.0 0.0 0.0 -1.34492e-13 3.48321e-13 -1.13618e-13 67.13 21.1937 -6.34088 -25.6277 -46.952 97.617 -0.897039 25.8472 3.90432 -5.26179e-10 -9.28551e-10 4.61189e-10 -9.03106e-10 -1.61135e-09 8.08496e-10 -5.26171e-10 -9.28547e-10 4.61179e-10 7.73091 5.47488 0.417314 -5.26181e-10 -9.28554e-10 4.61185e-10 2.90554 0.965183 0.102902 -5.26178e-10 -9.28555e-10 4.61189e-10 10.2786 0.731801 0.0259123 -5.26189e-10 -9.28552e-10 4.61199e-10 2.22167 -0.733487 -0.20892 -1.3453e-13 3.48323e-13 -1.1388e-13 -89.3244 55.9988 -4.23055 28.4113 -36.7669 -78.3 0.96146 -26.7083 4.05411 -9.00947e-11 2.45181e-10 9.41485e-11 -1.59176e-10 4.27628e-10 1.61342e-10 -9.00989e-11 2.45179e-10 9.41602e-11 -7.73091 5.47488 -0.417314 -9.00968e-11 2.45192e-10 9.41356e-11 -2.90554 0.965183 -0.102902 -9.01049e-11 2.4518e-10 9.41498e-11 -10.2786 0.731801 -0.0259123 -9.0089e-11 2.45183e-10 9.41439e-11 -2.22167 -0.733487 0.20892 -2.03217e-16 0.0 -3.88251e-19 0.524938 -6.98183 -2.27293 0.00562981 26.2922 0.88181 -5.0123 -10.099 -19.6911 2.03217e-16 0.0 3.88251e-19 19.3349 -47.1127 25.7605 0.60756 52.4751 -1.53964 9.80019 -12.8034 25.6412
29.3794 78.7315 -68.7691 564.971 -73.3378 169.984 9.25056 -10.4336 3.81284 -2.22094 1.22828 0.826354 9.31794 15.9935 16.4364 -19.6991 -12.1539 29.0112 -0.0 0.0 0.0 -0.0 0.0 0.0 -7.14309e-14 -1.90348e-13 -9.92992e-15 65.2789 22.5533 -3.53858 -25.7159 -46.7911 97.2703 -0.921094 26.1476 3.95725 -3.07501e-10 -6.96153e-10 6.40025e-11 -5.31341e-10 -1.20804e-09 1.16728e-10 -3.07492e-10 -6.96149e-10 6.39895e-11 7.73091 5.47488 0.417314 -3.07502e-10 -6.96157e-10 6.40027e-11 2.90554 0.965183 0.102902 -3.075e-10 -6.96158e-10 6.40014e-11 10.2786 0.731801 0.0259123 -3.07511e-10 -6.96155e-10 6.4008e-11 2.22167 -0.733487 -0.20892 -7.1472e-14 -1.90347e-13 -1.02126e-14 -90.4246 57.6782 -2.29106 28.4138 -36.7027 -78.1916 0.899255 -25.9205 3.91554 -1.74175e-10 6.0646e-10 -3.56462e-10 -2.95971e-10 1.0536e-09 -6.19741e-10 -1.74183e-10 6.06458e-10 -3.56449e-10 -7.73091 5.47488 -0.417314 -1.74176e-10 6.06467e-10 -3.56469e-10 -2.90554 0.965183 -0.102902 -1.74183e-10 6.06459e-10 -3.56461e-10 -10.2786 0.731801 -0.0259123 -1.74168e-10 6.06462e-10 -3.5647e-10 -2.22167 -0.733487 0.20892 -2.03217e-16 0.0 -3.88251e-19 1.18974 -6.03359 -3.7015 0.000234908 26.5923 0.878452 -4.89102 -9.56767 -19.7285 2.03217e-16 0.0 3.88251e-19 19.5716 -45.6445 27.9798 0.623235 52.7515 -1.54999 9.81199 -13.0555 25.3613
29.0361 78.7179 -68.95 569.907 -75.8313 164.368 9.56429 -10.7839 4.33356 -2.09782 1.62676 0.967428 9.23972 15.4661 15.6938 -19.1499 -11.4411 27.6986 -0.0 0.0 0.0 -0.0 0.0 0.0 5.86227e-15 -7.16308e-13 7.39498e-14 63.6416 23.7211 -0.72467 -25.8061 -46.6299 96.9139 -0.950147 26.5218 4.02286 -1.92042e-10 -4.12945e-10 -1.46613e-10 -3.34533e-10 -7.1233e-10 -2.50172e-10 -1.92031e-10 -4.12941e-10 -1.46628e-10 7.73091 5.47488 0.417314 -1.92043e-10 -4.12949e-10 -1.46609e-10 2.90554 0.965183 0.102902 -1.92041e-10 -4.12949e-10 -1.46615e-10 10.2786 0.731801 0.0259123 -1.92052e-10 -4.12946e-10 -1.46612e-10 2.22167 -0.733487 -0.20892 5.81633e-15 -7.16309e-13 7.36513e-14 -91.6449 59.1745 -0.160555 28.4163 -36.633 -78.074 0.840389 -25.1183 3.77721 -3.46201e-10 1.17314e-09 -1.12097e-09 -5.77907e-10 2.03446e-09 -1.94504e-09 -3.46212e-10 1.17314e-09 -1.12095e-09 -7.73091 5.47488 -0.417314 -3.46201e-10 1.17315e-09 -1.12097e-09 -2.90554 0.965183 -0.102902 -3.46206e-10 1.17314e-09 -1.12097e-09 -10.2786 0.731801 -0.0259123 -3.46193e-10 1.17315e-09 -1.12098e-09 -2.22167 -0.733487 0.20892 -2.03217e-16 0.0 -3.88251e-19 1.62165 -5.36994 -5.19405 -0.0160114 27.3459 0.871785 -4.60535 -8.69576 -19.5185 2.03217e-16 0.0 3.88251e-19 19.2268 -43.9961 29.3295 0.617744 52.5292 -1.52387 9.63037 -13.4213 24.5333
28.5054 78.7287 -68.9426 576.175 -78.5217 157.386 9.32415 -11.0232 4.75855 -1.92916 1.93478 1.09345 9.05296 14.8893 14.8833 -18.5398 -10.6493 26.2618 -0.0 0.0 0.0 -0.0 0.0 0.0 5.4446e-14 -9.39598e-13 1.26576e-13 62.2806 24.7273 1.97047 -25.9217 -46.4227 96.4509 -0.995523 27.1146 4.12678 -4.49378e-10 -9.83475e-11 -1.62094e-10 -7.76985e-10 -1.64998e-10 -2.70873e-10 -4.49367e-10 -9.83443e-11 -1.6211e-10 7.73091 5.47488 0.417314 -4.49378e-10 -9.83523e-11 -1.62087e-10 2.90554 0.965183 0.102902 -4.49377e-10 -9.8352e-11 -1.62096e-10 10.2786 0.731801 0.0259123 -4.49388e-10 -9.83495e-11 -1.62094e-10 2.22167 -0.733487 -0.20892 5.43922e-14 -9.396e-13 1.26278e-13 -92.6529 60.5799 1.80278 28.4187 -36.5608 -77.9521 0.807033 -24.6336 3.69495 -6.77773e-10 1.72151e-09 -2.11336e-09 -1.13049e-09 2.98523e-09 -3.66692e-09 -6.77787e-10 1.72151e-09 -2.11335e-09 -7.73091 5.47488 -0.417314 -6.77772e-10 1.72151e-09 -2.11336e-09 -2.90554 0.965183 -0.102902 -6.77776e-10 1.72151e-09 -2.11336e-09 -10.2786 0.731801 -0.0259123 -6.77765e-10 1.72152e-09 -2.11338e-09 -2.22167 -0.733487 0.20892 -2.03217e-16 0.0 -3.88251e-19 1.46867 -5.13532 -6.78484 -0.0501312 28.8806 0.866515 -4.20143 -7.47532 -19.2013 2.03217e-16 0.0 3.88251e-19 17.6959 -42.2918 29.4161 0.577558 51.4994 -1.44828 9.42778 -13.9254 23.5831
27.9564 78.803 -68.653 583.147 -81.4209 149.881 8.26469 -11.152 5.0212 -1.66214 2.11951 1.19233 8.7231 14.2431 14.0031 -17.8333 -9.73489 24.6987 -0.0 0.0 0.0 -0.0 0.0 0.0 6.1218e-14 -6.79515e-13 1.30102e-13 61.2951 25.556 4.62307 -26.0625 -46.1541 95.8696 -1.06571 27.9764 4.28073 -1.48589e-09 3.72832e-10 2.02317e-10 -2.55571e-09 6.48775e-10 3.83865e-10 -1.48588e-09 3.72833e-10 2.02305e-10 7.73091 5.47488 0.417314 -1.48589e-09 3.72827e-10 2.02324e-10 2.90554 0.965183 0.102902 -1.48589e-09 3.72827e-10 2.02316e-10 10.2786 0.731801 0.0259123 -1.4859e-09 3.72829e-10 2.0232e-10 2.22167 -0.733487 -0.20892 6.11488e-14 -6.79516e-13 1.29832e-13 -93.3743 61.9594 3.53631 28.4208 -36.4921 -77.837 0.809655 -24.6641 3.70035 -1.39332e-09 2.40257e-09 -3.72467e-09 -2.33317e-09 4.16912e-09 -6.46533e-09 -1.39333e-09 2.40256e-09 -3.72466e-09 -7.73091 5.47488 -0.417314 -1.39332e-09 2.40256e-09 -3.72467e-09 -2.90554 0.965183 -0.102902 -1.39332e-09 2.40257e-09 -3.72467e-09 -10.2786 0.731801 -0.0259123 -1.39331e-09 2.40257e-09 -3.72469e-09 -2.22167 -0.733487 0.20892 -2.03217e-16 0.0 -3.88251e-19 0.443462 -5.33321 -8.52452 -0.103378 31.3202 0.857375 -3.65315 -5.75524 -18.7742 2.03217e-16 0.0 3.88251e-19 14.6082 -40.3994 27.8446 0.497286 49.1715 -1.31137 9.22091 -14.6685 22.519
27.4763 78.915 -68.2404 595.929 -84.2198 136.634 6.65344 -11.2541 5.16953 -1.31168 2.23994 1.26949 8.26197 13.5346 13.0581 -16.9994 -8.67993 23.0234 -0.0 0.0 0.0 -0.0 0.0 0.0 4.96309e-14 -1.25163e-13 9.55626e-14 60.6703 26.1952 7.24901 -26.2137 -45.8462 95.2235 -1.15801 29.0257 4.47283 -3.0463e-09 9.67494e-10 8.81228e-10 -5.23202e-09 1.6755e-09 1.59482e-09 -3.04629e-09 9.67492e-10 8.81223e-10 7.73091 5.47488 0.417314 -3.0463e-09 9.67489e-10 8.81234e-10 2.90554 0.965183 0.102902 -3.0463e-09 9.67489e-10 8.81228e-10 10.2786 0.731801 0.0259123 -3.04631e-09 9.67491e-10 8.81237e-10 2.22167 -0.733487 -0.20892 4.9541e-14 -1.25164e-13 9.5339e-14 -93.9354 63.259 5.18558 28.4225 -36.4235 -77.7227 0.833411 -24.9964 3.75713 -2.38621e-09 3.2654e-09 -5.86278e-09 -4.00369e-09 5.66951e-09 -1.01792e-08 -2.38622e-09 3.2654e-09 -5.86277e-09 -7.73091 5.47488 -0.417314 -2.38621e-09 3.2654e-09 -5.86277e-09 -2.90554 0.965183 -0.102902 -2.38621e-09 3.2654e-09 -5.86278e-09 -10.2786 0.731801 -0.0259123 -2.3862e-09 3.26541e-09 -5.86279e-09 -2.22167 -0.733487 0.20892 -2.03217e-16 0.0 -3.88251e-19 -1.25914 -5.88999 -10.3867 -0.17093 34.4779 0.845251 -2.98412 -3.57761 -18.1984 2.03217e-16 0.0 3.88251e-19 10.6518 -38.2109 25.1357 0.408861 45.8459 -1.14437 8.89663 -15.6101 21.1447
26.9497 79.0425 -67.6992 629.381 -86.5891 102.385 4.87587 -11.2673 5.31506 -0.982653 2.32577 1.34795 7.72026 12.7978 12.0537 -16.0915 -7.57425 21.2415 -0.0 0.0 0.0 -0.0 0.0 0.0 3.15753e-14 4.587e-13 5.48378e-14 60.3008 26.7029 9.62435 -26.3734 -45.5069 94.5177 -1.26836 30.209 4.69422 -4.40772e-09 1.42878e-09 1.50798e-09 -7.56665e-09 2.47197e-09 2.71061e-09 -4.40771e-09 1.42877e-09 1.50798e-09 7.73091 5.47488 0.417314 -4.40772e-09 1.42877e-09 1.50798e-09 2.90554 0.965183 0.102902 -4.40771e-09 1.42877e-09 1.50798e-09 10.2786 0.731801 0.0259123 -4.40773e-09 1.42878e-09 1.50799e-09 2.22167 -0.733487 -0.20892 3.14679e-14 4.58701e-13 5.46607e-14 -94.2452 64.4112 6.65077 28.4246 -36.3441 -77.5893 0.858929 -25.3463 3.81726 -3.23145e-09 3.93344e-09 -7.71697e-09 -5.42496e-09 6.83162e-09 -1.33995e-08 -3.23146e-09 3.93344e-09 -7.71697e-09 -7.73091 5.47488 -0.417314 -3.23145e-09 3.93343e-09 -7.71697e-09 -2.90554 0.965183 -0.102902 -3.23146e-09 3.93344e-09 -7.71697e-09 -10.2786 0.731801 -0.0259123 -3.23145e-09 3.93344e-09 -7.71699e-09 -2.22167 -0.733487 0.20892 -2.03217e-16 0.0 -3.88251e-19 -3.28536 -6.83004 -12.2931 -0.253653 38.2152 0.846133 -2.30007 -1.2297 -17.5504 2.03217e-16 0.0 3.88251e-19 6.72819 -35.9202 22.1961 0.342104 42.4007 -0.986887 8.45111 -16.561 19.58
